<svg width="900" height="900" viewBox="0 0 900 900" fill="none" xmlns="http://www.w3.org/2000/svg">
<g clip-path="url(#clip0_4_818)">
<rect width="900" height="900" fill="#EFEFEF"/>
<rect width="900" height="900" fill="#E4FFBD"/>
<path d="M261.374 514V367.273H314.104V514H261.374ZM287.739 351.989C280.606 351.989 274.492 349.632 269.398 344.92C264.303 340.207 261.756 334.539 261.756 327.916C261.756 321.293 264.303 315.625 269.398 310.913C274.492 306.2 280.606 303.844 287.739 303.844C294.935 303.844 301.049 306.2 306.08 310.913C311.174 315.625 313.722 321.293 313.722 327.916C313.722 334.539 311.174 340.207 306.08 344.92C301.049 349.632 294.935 351.989 287.739 351.989ZM475.088 415.036H426.561C426.306 412.042 425.256 409.463 423.409 407.298C421.562 405.133 419.174 403.477 416.244 402.331C413.379 401.121 410.194 400.516 406.692 400.516C402.17 400.516 398.286 401.344 395.038 402.999C391.79 404.655 390.198 407.011 390.261 410.068C390.198 412.233 391.121 414.239 393.032 416.086C395.006 417.933 398.795 419.366 404.399 420.385L434.203 425.734C449.233 428.473 460.409 433.09 467.733 439.586C475.12 446.018 478.845 454.647 478.909 465.473C478.845 475.917 475.725 484.992 469.548 492.698C463.434 500.34 455.06 506.262 444.424 510.466C433.853 514.605 421.785 516.675 408.22 516.675C385.804 516.675 368.259 512.089 355.586 502.919C342.976 493.749 335.939 481.649 334.475 466.619H386.823C387.523 471.268 389.816 474.866 393.7 477.414C397.649 479.897 402.616 481.139 408.602 481.139C413.442 481.139 417.423 480.311 420.543 478.656C423.727 477 425.351 474.643 425.415 471.587C425.351 468.785 423.95 466.556 421.212 464.9C418.537 463.244 414.334 461.907 408.602 460.888L382.619 456.303C367.654 453.692 356.445 448.724 348.994 441.401C341.543 434.077 337.85 424.652 337.913 413.125C337.85 402.936 340.524 394.306 345.938 387.238C351.414 380.105 359.216 374.692 369.341 370.998C379.531 367.241 391.599 365.362 405.546 365.362C426.752 365.362 443.469 369.756 455.696 378.545C467.987 387.333 474.451 399.497 475.088 415.036ZM551.843 431.466V514H499.113V318.364H549.932V395.166H551.461C554.772 385.805 560.281 378.513 567.987 373.291C575.693 368.005 584.958 365.362 595.785 365.362C606.165 365.362 615.176 367.719 622.818 372.431C630.524 377.144 636.479 383.639 640.682 391.918C644.949 400.197 647.05 409.686 646.986 420.385V514H594.256V431.466C594.32 424.206 592.505 418.506 588.811 414.367C585.181 410.227 579.991 408.158 573.241 408.158C568.974 408.158 565.217 409.113 561.969 411.023C558.784 412.87 556.301 415.545 554.518 419.048C552.798 422.487 551.907 426.626 551.843 431.466Z" fill="#B1CA8E"/>
</g>
<defs>
<clipPath id="clip0_4_818">
<rect width="900" height="900" fill="white"/>
</clipPath>
</defs>
</svg>
